<?xml version="1.0" encoding="utf-8"?>
<!-- Generator: Adobe Illustrator 25.0.0, SVG Export Plug-In . SVG Version: 6.00 Build 0)  -->
<svg version="1.1" id="Layer_1" xmlns="http://www.w3.org/2000/svg" xmlns:xlink="http://www.w3.org/1999/xlink" x="0px" y="0px"
	 viewBox="0 0 16 16" style="enable-background:new 0 0 16 16;" xml:space="preserve">
<style type="text/css">
	.st0{fill:#FEC813;}
</style>
<g>
	<rect x="0" y="0" width="16" height="16"/>
	<g>
		<path class="st0" d="M8,13.5c-0.7,0-1.4,0-2.2,0c-0.1,0-0.1,0-0.2-0.1c-1-1-2-2-3-3c0,0-0.1-0.1-0.1-0.2c0-1.4,0-2.9,0-4.3
			c0-0.1,0-0.2,0.1-0.2c1-1,2-2,3-3c0.1-0.1,0.2-0.1,0.3-0.1c1.4,0,2.8,0,4.2,0c0.1,0,0.2,0,0.3,0.1c0.9,0.9,1.7,1.7,2.6,2.6
			c0.1,0.1,0.3,0.3,0.4,0.4c0,0.1,0.1,0.1,0.1,0.2c0,1.4,0,2.9,0,4.3c0,0.1,0,0.1-0.1,0.2c-0.9,0.9-1.8,1.8-2.6,2.7
			c-0.1,0.1-0.1,0.1-0.2,0.2c-0.2,0.3-0.4,0.3-0.7,0.3C9.2,13.4,8.6,13.5,8,13.5C8,13.5,8,13.5,8,13.5z M12.9,10
			C12.9,9.9,12.9,9.9,12.9,10c0-1.3,0-2.6,0-3.9c0-0.1,0-0.1-0.1-0.2c-0.3-0.3-0.7-0.7-1-1c-0.6-0.6-1.1-1.1-1.7-1.7
			c-0.1,0-0.1-0.1-0.2-0.1c-1.3,0-2.5,0-3.8,0c-0.1,0-0.2,0-0.3,0.1C5,4,4.1,4.9,3.2,5.8C3.1,5.9,3.1,6,3.1,6.2c0,1.2,0,2.4,0,3.6
			c0,0,0,0.1,0,0.1c0.5-0.2,1-0.3,1.5-0.5C4.9,9.3,5.3,9.2,5.7,9C5.9,9,5.9,9,6.1,9.2c0,0,0,0,0,0c0.1,0,0.2-0.1,0.2-0.3
			c0.1-0.5,0.2-1,0.2-1.5c0-0.3,0.1-0.6,0.2-0.9C6.9,6,7.1,5.5,7.2,4.9c0.1-0.4,0.1-0.8,0.2-1.2c0-0.1,0.1-0.2,0.1-0.2
			c0.1,0,0.3,0,0.4,0c0,0,0.1,0,0.1,0c0.1,0,0.3,0,0.4,0c0.1,0,0.1,0.1,0.1,0.1c0,0.1,0.1,0.3,0.1,0.5c0,0.3,0.1,0.6,0.1,1
			c0.2,0.6,0.4,1.2,0.5,1.8c0.1,0.2,0.1,0.5,0.1,0.7C9.5,8,9.5,8.4,9.6,8.8c0,0.2,0,0.4,0.3,0.5c0,0,0,0,0-0.1C10,9,10,9,10.2,9
			c0.3,0.1,0.5,0.2,0.8,0.3c0.3,0.1,0.7,0.2,1,0.4C12.4,9.8,12.6,9.9,12.9,10z M3.2,10.2c0.1,0.1,0.2,0.2,0.2,0.2
			c0.8,0.8,1.6,1.6,2.4,2.4c0,0,0.1,0.1,0.2,0.1c1.3,0,2.6,0,3.9,0c0.1,0,0.1,0,0.2-0.1c0.8-0.8,1.7-1.7,2.5-2.5
			c0,0,0.1-0.1,0.1-0.1C11.9,10,11,9.7,10.2,9.4c0,0.1-0.1,0.2-0.1,0.4c-0.1,0.4-0.3,0.8-0.4,1.2c-0.1,0.3-0.3,0.7-0.4,1
			c0,0-0.1,0.1-0.1,0.1c-0.1,0-0.2,0-0.2,0c0-0.1,0-0.2,0-0.2c0.1-0.2,0.2-0.4,0.2-0.7c0,0,0-0.1,0-0.1c-0.1-0.1-0.3-0.2-0.5-0.3
			c-0.3-0.1-0.6-0.2-0.8-0.6c0,0,0,0.1-0.1,0.1c-0.1,0.2-0.3,0.3-0.5,0.4c-0.2,0.1-0.3,0.2-0.5,0.2c-0.2,0.1-0.2,0.2-0.1,0.4
			c0,0,0,0,0,0C6.9,11.5,7,11.7,7,11.9c0,0.1,0.1,0.2-0.1,0.3c-0.1,0-0.2,0-0.3-0.2c-0.1-0.2-0.1-0.4-0.2-0.5
			C6.3,10.8,6,10.2,5.8,9.6C5.8,9.4,5.7,9.4,5.6,9.4c-0.3,0.1-0.7,0.2-1,0.4C4.1,9.9,3.7,10.1,3.2,10.2z M8.2,3.9
			C8.2,3.9,8.2,3.9,8.2,3.9C8.2,4,8.1,4,8.1,4.1c0,0.9,0,1.8,0,2.6c0,0.1,0,0.2,0.1,0.2c0.1,0,0.1,0.1,0.2,0.1c0,0,0.1,0.1,0,0.2
			C8.5,7.3,8.4,7.5,8.3,7.3C8.2,7.2,8,7.2,7.8,7.2c-0.2,0-0.3,0.2-0.3,0.3c0,0.1,0.1,0.2,0.2,0.3c0.1,0,0.3,0.1,0.4,0.1
			c0.3,0.1,0.4,0.3,0.4,0.5c0,0.3-0.1,0.5-0.4,0.6c-0.1,0-0.1,0.1-0.1,0.2c0,0.2,0,0.4,0.1,0.6c0.1,0.2,0.2,0.4,0.4,0.5
			c0.2,0.1,0.3,0.1,0.5,0.2c0.1,0,0.2,0.1,0.2,0.1c0.1-0.4,0.3-0.7,0.4-1.1c0-0.1,0-0.1-0.1-0.2C9.5,9.4,9.3,9.3,9.3,9
			C9.2,8.5,9.2,7.9,9.1,7.4C9.1,7.2,9,7.1,9,6.9C8.8,6.5,8.6,6,8.5,5.5C8.4,5.1,8.4,4.6,8.3,4.2C8.3,4.1,8.3,4,8.2,3.9z M7.8,3.8
			C7.7,3.9,7.7,3.9,7.8,3.8C7.7,4.1,7.6,4.3,7.6,4.4c-0.1,0.3-0.1,0.7-0.2,1C7.3,6,7.1,6.5,7,7C6.9,7.5,6.8,8,6.7,8.6
			C6.7,9,6.6,9.4,6.2,9.6c0.1,0.4,0.3,0.8,0.4,1.2c0.1,0,0.1,0,0.1-0.1c0.2-0.1,0.4-0.2,0.6-0.3c0.1-0.1,0.2-0.1,0.3-0.2
			c0.2-0.3,0.2-0.6,0.2-0.9C7.6,9.1,7.4,9,7.3,8.9c-0.1,0-0.1-0.1,0-0.2c0.1,0,0.1-0.2,0.2,0c0.1,0.1,0.2,0.2,0.4,0.2
			c0.2,0,0.3-0.1,0.4-0.3c0-0.2,0-0.3-0.2-0.4C7.9,8.2,7.8,8.1,7.6,8.1C7.4,7.9,7.3,7.8,7.3,7.5c0-0.2,0.1-0.4,0.4-0.5
			c0.1,0,0.1-0.1,0.1-0.2c0-0.9,0-1.8,0-2.7C7.8,4,7.8,3.9,7.8,3.8z"/>
	</g>
</g>
</svg>
